<svg xmlns="http://www.w3.org/2000/svg" width="512" height="512" viewBox="0 0 512 512">
<defs>
  <linearGradient id="bg" x1="70" y1="40" x2="440" y2="470" gradientUnits="userSpaceOnUse">
    <stop stop-color="#132a3a"/>
    <stop offset="0.58" stop-color="#091723"/>
    <stop offset="1" stop-color="#061019"/>
  </linearGradient>
  <linearGradient id="nib" x1="207" y1="165" x2="302" y2="350" gradientUnits="userSpaceOnUse">
    <stop stop-color="#fffaf0"/>
    <stop offset="1" stop-color="#e9dfcf"/>
  </linearGradient>
  <clipPath id="appClip"><rect x="20" y="20" width="472" height="472" rx="112"/></clipPath>
  <filter id="shadow" x="-30%" y="-30%" width="160%" height="160%">
    <feDropShadow dx="0" dy="12" stdDeviation="13" flood-color="#000" flood-opacity="0.34"/>
  </filter>
</defs>
<g clip-path="url(#appClip)">
<rect x="20" y="20" width="472" height="472" rx="112" fill="url(#bg)"/>
<rect x="43" y="43" width="426" height="426" rx="92" fill="none" stroke="#f5efe3" stroke-opacity="0.09" stroke-width="2"/>
<circle cx="143" cy="118" r="94" fill="#d7a04b" opacity="0.045"/>
<circle cx="413" cy="394" r="126" fill="#4ebc98" opacity="0.035"/>
</g>
<rect x="20" y="20" width="472" height="472" rx="112" fill="none" stroke="#d7a04b" stroke-width="10"/>
<g filter="url(#shadow)">
  <path d="M256 104C305 104 348 122 381 149L375 252C371 326 329 380 256 416C183 380 141 326 137 252L131 149C164 122 207 104 256 104Z" fill="#0b1d2a" stroke="#f5efe3" stroke-width="12" stroke-linejoin="round"/>
  <path d="M256 139C292 139 324 151 349 171L345 247C342 301 312 341 256 371C200 341 170 301 167 247L163 171C188 151 220 139 256 139Z" fill="none" stroke="#d7a04b" stroke-opacity="0.62" stroke-width="5"/>
  <path d="M256 162L315 254L256 349L197 254L256 162Z" fill="url(#nib)" stroke="#d7a04b" stroke-width="8" stroke-linejoin="round"/>
  <path d="M256 162V222" stroke="#d7a04b" stroke-width="7" stroke-linecap="round"/>
  <circle cx="256" cy="239" r="14" fill="#0b1d2a" stroke="#d7a04b" stroke-width="6"/>
  <path d="M256 253V349" stroke="#0b1d2a" stroke-width="8" stroke-linecap="round"/>
  <path d="M222 282H290" stroke="#d7a04b" stroke-opacity="0.7" stroke-width="5" stroke-linecap="round"/>
</g>
<g filter="url(#shadow)">
  <circle cx="353" cy="333" r="48" fill="#d7a04b" stroke="#fffaf0" stroke-width="7"/>
  <path d="M330 333L346 349L377 316" fill="none" stroke="#07111b" stroke-width="12" stroke-linecap="round" stroke-linejoin="round"/>
</g>
</svg>